G75*
G70*
%OFA0B0*%
%FSLAX24Y24*%
%IPPOS*%
%LPD*%
%AMOC8*
5,1,8,0,0,1.08239X$1,22.5*
%
%ADD10C,0.0000*%
%ADD11C,0.0594*%
%ADD12R,0.0520X0.0520*%
%ADD13C,0.0520*%
%ADD14C,0.0600*%
%ADD15OC8,0.1005*%
%ADD16OC8,0.1000*%
%ADD17C,0.0277*%
%ADD18C,0.0100*%
%ADD19C,0.0500*%
%ADD20C,0.0240*%
%ADD21C,0.0120*%
%ADD22C,0.0560*%
%ADD23C,0.0660*%
%ADD24C,0.0160*%
D10*
X001569Y001508D02*
X001569Y021380D01*
X017226Y021380D01*
X017226Y001508D01*
X001569Y001508D01*
D11*
X015316Y017238D02*
X015909Y017238D01*
X015909Y018238D02*
X015316Y018238D01*
X015316Y019238D02*
X015909Y019238D01*
X015909Y020238D02*
X015316Y020238D01*
X015603Y003575D02*
X016197Y003575D01*
X016197Y002575D02*
X015603Y002575D01*
D12*
X007800Y004175D03*
X007800Y007550D03*
X007800Y010925D03*
D13*
X007800Y009925D03*
X007800Y008925D03*
X007800Y006550D03*
X007800Y005550D03*
X007800Y003175D03*
X007800Y002175D03*
X004800Y002175D03*
X004800Y003175D03*
X004800Y004175D03*
X004800Y005550D03*
X004800Y006550D03*
X004800Y007550D03*
X004800Y008925D03*
X004800Y009925D03*
X004800Y010925D03*
D14*
X002600Y011550D02*
X002000Y011550D01*
X002000Y012550D02*
X002600Y012550D01*
X002600Y013550D02*
X002000Y013550D01*
X002000Y009050D02*
X002600Y009050D01*
X002600Y008050D02*
X002000Y008050D01*
X002000Y007050D02*
X002600Y007050D01*
X002600Y004550D02*
X002000Y004550D01*
X002000Y003550D02*
X002600Y003550D01*
X002600Y002550D02*
X002000Y002550D01*
D15*
X003038Y002163D03*
X002350Y006225D03*
X002350Y010725D03*
X002225Y015600D03*
D16*
X003300Y018175D03*
X006300Y018175D03*
D17*
X007413Y017250D03*
X007738Y017925D03*
X008988Y017925D03*
X007538Y016000D03*
X008925Y014525D03*
X009188Y014263D03*
X008250Y013575D03*
X008000Y011513D03*
X008500Y010825D03*
X009000Y009200D03*
X008975Y008000D03*
X009750Y007263D03*
X009500Y007013D03*
X010300Y006675D03*
X009363Y005425D03*
X009863Y004363D03*
X008550Y002825D03*
X008425Y001950D03*
X012675Y001950D03*
X013675Y001950D03*
X014050Y002450D03*
X014800Y002325D03*
X014925Y006738D03*
X015550Y007300D03*
X014613Y007738D03*
X013925Y007738D03*
X013650Y007038D03*
X014425Y008800D03*
X014188Y010475D03*
X014625Y011225D03*
X015613Y010800D03*
X016550Y010925D03*
X015500Y012200D03*
X013738Y013238D03*
X013625Y013638D03*
X013313Y013138D03*
X012738Y013800D03*
X012300Y014175D03*
X011738Y013800D03*
X011463Y011938D03*
X011925Y011613D03*
X012300Y011925D03*
X013113Y011563D03*
X012425Y010175D03*
X010425Y008050D03*
X010025Y012563D03*
X007475Y020250D03*
X016250Y014638D03*
D18*
X017050Y014608D02*
X009337Y014608D01*
X009435Y014510D02*
X017050Y014510D01*
X017050Y014411D02*
X012402Y014411D01*
X012399Y014414D02*
X012201Y014414D01*
X012061Y014274D01*
X012061Y014076D01*
X012150Y013988D01*
X012150Y012113D01*
X012075Y012038D01*
X012075Y013675D01*
X011976Y013774D01*
X011976Y013899D01*
X011836Y014039D01*
X011639Y014039D01*
X011499Y013899D01*
X011499Y013701D01*
X011639Y013561D01*
X011764Y013561D01*
X011775Y013551D01*
X011775Y011800D01*
X011686Y011712D01*
X011686Y011514D01*
X011826Y011374D01*
X012024Y011374D01*
X012164Y011514D01*
X012164Y011712D01*
X012075Y011800D01*
X012075Y011813D01*
X012201Y011686D01*
X012399Y011686D01*
X012539Y011826D01*
X012539Y012024D01*
X012450Y012113D01*
X012450Y013988D01*
X012539Y014076D01*
X012539Y014274D01*
X012399Y014414D01*
X012500Y014313D02*
X017050Y014313D01*
X017050Y014214D02*
X012539Y014214D01*
X012539Y014116D02*
X017050Y014116D01*
X017050Y014017D02*
X012858Y014017D01*
X012836Y014039D02*
X012639Y014039D01*
X012499Y013899D01*
X012499Y013701D01*
X012639Y013561D01*
X012836Y013561D01*
X012925Y013650D01*
X013050Y013650D01*
X013499Y013202D01*
X013499Y013139D01*
X013639Y012999D01*
X013836Y012999D01*
X013976Y013139D01*
X013976Y013337D01*
X013836Y013476D01*
X013648Y013476D01*
X013262Y013862D01*
X013175Y013950D01*
X012925Y013950D01*
X012836Y014039D01*
X012617Y014017D02*
X012480Y014017D01*
X012450Y013919D02*
X012518Y013919D01*
X012499Y013820D02*
X012450Y013820D01*
X012450Y013722D02*
X012499Y013722D01*
X012450Y013623D02*
X012577Y013623D01*
X012450Y013525D02*
X013176Y013525D01*
X013077Y013623D02*
X012898Y013623D01*
X012738Y013800D02*
X013113Y013800D01*
X013675Y013238D01*
X013738Y013238D01*
X013976Y013229D02*
X017050Y013229D01*
X017050Y013131D02*
X013968Y013131D01*
X013870Y013032D02*
X017050Y013032D01*
X017050Y012934D02*
X012450Y012934D01*
X012450Y013032D02*
X013605Y013032D01*
X013507Y013131D02*
X012450Y013131D01*
X012450Y013229D02*
X013471Y013229D01*
X013373Y013328D02*
X012450Y013328D01*
X012450Y013426D02*
X013274Y013426D01*
X013403Y013722D02*
X017050Y013722D01*
X017050Y013820D02*
X013305Y013820D01*
X013206Y013919D02*
X017050Y013919D01*
X017050Y013623D02*
X013502Y013623D01*
X013600Y013525D02*
X017050Y013525D01*
X017050Y013426D02*
X013887Y013426D01*
X013976Y013328D02*
X017050Y013328D01*
X017050Y012835D02*
X012450Y012835D01*
X012450Y012737D02*
X017050Y012737D01*
X017050Y012638D02*
X012450Y012638D01*
X012450Y012540D02*
X017050Y012540D01*
X017050Y012441D02*
X012450Y012441D01*
X012450Y012343D02*
X017050Y012343D01*
X017050Y012244D02*
X012450Y012244D01*
X012450Y012146D02*
X017050Y012146D01*
X017050Y012047D02*
X012516Y012047D01*
X012539Y011949D02*
X017050Y011949D01*
X017050Y011850D02*
X012539Y011850D01*
X012464Y011752D02*
X012964Y011752D01*
X013014Y011801D02*
X012874Y011662D01*
X012874Y011464D01*
X012963Y011375D01*
X012963Y010925D01*
X012452Y010414D01*
X012326Y010414D01*
X012186Y010274D01*
X012186Y010076D01*
X012326Y009936D01*
X012524Y009936D01*
X012664Y010076D01*
X012664Y010202D01*
X013175Y010713D01*
X013262Y010801D01*
X013262Y011375D01*
X013351Y011464D01*
X013351Y011662D01*
X013211Y011801D01*
X013014Y011801D01*
X012874Y011653D02*
X012164Y011653D01*
X012164Y011555D02*
X012874Y011555D01*
X012881Y011456D02*
X012106Y011456D01*
X011925Y011613D02*
X011925Y013613D01*
X011738Y013800D01*
X011976Y013820D02*
X012150Y013820D01*
X012150Y013722D02*
X012028Y013722D01*
X012075Y013623D02*
X012150Y013623D01*
X012150Y013525D02*
X012075Y013525D01*
X012075Y013426D02*
X012150Y013426D01*
X012150Y013328D02*
X012075Y013328D01*
X012075Y013229D02*
X012150Y013229D01*
X012150Y013131D02*
X012075Y013131D01*
X012075Y013032D02*
X012150Y013032D01*
X012150Y012934D02*
X012075Y012934D01*
X012075Y012835D02*
X012150Y012835D01*
X012150Y012737D02*
X012075Y012737D01*
X012075Y012638D02*
X012150Y012638D01*
X012150Y012540D02*
X012075Y012540D01*
X012075Y012441D02*
X012150Y012441D01*
X012150Y012343D02*
X012075Y012343D01*
X012075Y012244D02*
X012150Y012244D01*
X012150Y012146D02*
X012075Y012146D01*
X012075Y012047D02*
X012084Y012047D01*
X012300Y011925D02*
X012300Y014175D01*
X012120Y014017D02*
X011858Y014017D01*
X011957Y013919D02*
X012150Y013919D01*
X012061Y014116D02*
X009835Y014116D01*
X009844Y014094D02*
X009822Y014148D01*
X009814Y014156D01*
X009809Y014167D01*
X009765Y014205D01*
X009723Y014247D01*
X009713Y014251D01*
X009552Y014393D01*
X009123Y014822D01*
X008995Y014875D01*
X008855Y014875D01*
X008727Y014822D01*
X008628Y014723D01*
X008575Y014595D01*
X008575Y014456D01*
X008628Y014327D01*
X009024Y013931D01*
X009029Y013921D01*
X009073Y013882D01*
X009114Y013841D01*
X009125Y013837D01*
X009175Y013792D01*
X009175Y009388D01*
X009150Y009388D01*
X009099Y009439D01*
X008901Y009439D01*
X008761Y009299D01*
X008761Y009101D01*
X008901Y008961D01*
X009099Y008961D01*
X009175Y009038D01*
X009175Y007511D01*
X009161Y007498D01*
X009161Y007315D01*
X009175Y007302D01*
X009175Y007143D01*
X009150Y007082D01*
X009150Y006943D01*
X009203Y006814D01*
X009302Y006716D01*
X009430Y006663D01*
X009570Y006663D01*
X009698Y006716D01*
X009822Y006839D01*
X009859Y006929D01*
X009948Y006966D01*
X010047Y007064D01*
X010100Y007193D01*
X010100Y007332D01*
X010047Y007461D01*
X009948Y007559D01*
X009875Y007590D01*
X009875Y008432D01*
X009875Y013892D01*
X009879Y013903D01*
X009875Y013961D01*
X009875Y014020D01*
X009871Y014030D01*
X009870Y014041D01*
X009844Y014094D01*
X009875Y014017D02*
X011617Y014017D01*
X011518Y013919D02*
X009878Y013919D01*
X009875Y013820D02*
X011499Y013820D01*
X011499Y013722D02*
X009875Y013722D01*
X009875Y013623D02*
X011577Y013623D01*
X011775Y013525D02*
X009875Y013525D01*
X009875Y013426D02*
X011775Y013426D01*
X011775Y013328D02*
X009875Y013328D01*
X009875Y013229D02*
X011775Y013229D01*
X011775Y013131D02*
X009875Y013131D01*
X009875Y013032D02*
X011775Y013032D01*
X011775Y012934D02*
X009875Y012934D01*
X009875Y012835D02*
X011775Y012835D01*
X011775Y012737D02*
X009875Y012737D01*
X009875Y012638D02*
X011775Y012638D01*
X011775Y012540D02*
X009875Y012540D01*
X009875Y012441D02*
X011775Y012441D01*
X011775Y012343D02*
X009875Y012343D01*
X009875Y012244D02*
X011775Y012244D01*
X011775Y012146D02*
X009875Y012146D01*
X009875Y012047D02*
X011775Y012047D01*
X011775Y011949D02*
X009875Y011949D01*
X009875Y011850D02*
X011775Y011850D01*
X011726Y011752D02*
X009875Y011752D01*
X009875Y011653D02*
X011686Y011653D01*
X011686Y011555D02*
X009875Y011555D01*
X009875Y011456D02*
X011744Y011456D01*
X012124Y011752D02*
X012136Y011752D01*
X012903Y010865D02*
X009875Y010865D01*
X009875Y010767D02*
X012804Y010767D01*
X012706Y010668D02*
X009875Y010668D01*
X009875Y010570D02*
X012607Y010570D01*
X012509Y010471D02*
X009875Y010471D01*
X009875Y010373D02*
X012285Y010373D01*
X012186Y010274D02*
X009875Y010274D01*
X009875Y010176D02*
X012186Y010176D01*
X012186Y010077D02*
X009875Y010077D01*
X009875Y009979D02*
X012284Y009979D01*
X012425Y010175D02*
X013113Y010863D01*
X013113Y011563D01*
X013351Y011555D02*
X017050Y011555D01*
X017050Y011653D02*
X013351Y011653D01*
X013261Y011752D02*
X017050Y011752D01*
X017050Y011456D02*
X013344Y011456D01*
X013262Y011358D02*
X017050Y011358D01*
X017050Y011259D02*
X013262Y011259D01*
X013262Y011161D02*
X016448Y011161D01*
X016451Y011164D02*
X016311Y011024D01*
X016311Y010950D01*
X015800Y010950D01*
X015711Y011039D01*
X015514Y011039D01*
X015374Y010899D01*
X015374Y010701D01*
X015514Y010561D01*
X015711Y010561D01*
X015800Y010650D01*
X016487Y010650D01*
X016523Y010686D01*
X016649Y010686D01*
X016789Y010826D01*
X016789Y011024D01*
X016649Y011164D01*
X016451Y011164D01*
X016349Y011062D02*
X013262Y011062D01*
X013262Y010964D02*
X015438Y010964D01*
X015374Y010865D02*
X013262Y010865D01*
X013229Y010767D02*
X015374Y010767D01*
X015407Y010668D02*
X013130Y010668D01*
X013032Y010570D02*
X015505Y010570D01*
X015720Y010570D02*
X017050Y010570D01*
X017050Y010668D02*
X016505Y010668D01*
X016425Y010800D02*
X016550Y010925D01*
X016425Y010800D02*
X015613Y010800D01*
X015787Y010964D02*
X016311Y010964D01*
X016652Y011161D02*
X017050Y011161D01*
X017050Y011062D02*
X016751Y011062D01*
X016789Y010964D02*
X017050Y010964D01*
X017050Y010865D02*
X016789Y010865D01*
X016729Y010767D02*
X017050Y010767D01*
X017050Y010471D02*
X012933Y010471D01*
X012835Y010373D02*
X017050Y010373D01*
X017050Y010274D02*
X012736Y010274D01*
X012664Y010176D02*
X017050Y010176D01*
X017050Y010077D02*
X012664Y010077D01*
X012566Y009979D02*
X017050Y009979D01*
X017050Y009880D02*
X009875Y009880D01*
X009875Y009782D02*
X017050Y009782D01*
X017050Y009683D02*
X009875Y009683D01*
X009875Y009585D02*
X017050Y009585D01*
X017050Y009486D02*
X009875Y009486D01*
X009875Y009388D02*
X017050Y009388D01*
X017050Y009289D02*
X009875Y009289D01*
X009875Y009191D02*
X017050Y009191D01*
X017050Y009092D02*
X009875Y009092D01*
X009875Y008994D02*
X017050Y008994D01*
X017050Y008895D02*
X009875Y008895D01*
X009875Y008797D02*
X017050Y008797D01*
X017050Y008698D02*
X009875Y008698D01*
X009875Y008600D02*
X017050Y008600D01*
X017050Y008501D02*
X009875Y008501D01*
X009875Y008403D02*
X017050Y008403D01*
X017050Y008304D02*
X009875Y008304D01*
X009875Y008206D02*
X017050Y008206D01*
X017050Y008107D02*
X009875Y008107D01*
X009875Y008009D02*
X017050Y008009D01*
X017050Y007910D02*
X014778Y007910D01*
X014711Y007976D02*
X014851Y007837D01*
X014851Y007639D01*
X014711Y007499D01*
X014514Y007499D01*
X014435Y007578D01*
X014103Y007578D01*
X014024Y007499D01*
X013826Y007499D01*
X013686Y007639D01*
X013686Y007837D01*
X013826Y007976D01*
X014024Y007976D01*
X014103Y007898D01*
X014435Y007898D01*
X014514Y007976D01*
X014711Y007976D01*
X014851Y007812D02*
X017050Y007812D01*
X017050Y007713D02*
X014851Y007713D01*
X014827Y007615D02*
X017050Y007615D01*
X017050Y007516D02*
X014729Y007516D01*
X014496Y007516D02*
X014041Y007516D01*
X013809Y007516D02*
X009991Y007516D01*
X010065Y007418D02*
X017050Y007418D01*
X017050Y007319D02*
X010100Y007319D01*
X010100Y007221D02*
X017050Y007221D01*
X017050Y007122D02*
X010071Y007122D01*
X010006Y007024D02*
X017050Y007024D01*
X017050Y006925D02*
X009857Y006925D01*
X009809Y006827D02*
X017050Y006827D01*
X017050Y006728D02*
X009710Y006728D01*
X009290Y006728D02*
X008169Y006728D01*
X008180Y006708D02*
X008151Y006765D01*
X008113Y006817D01*
X008067Y006863D01*
X008015Y006901D01*
X007957Y006930D01*
X007896Y006950D01*
X007832Y006960D01*
X007830Y006960D01*
X007830Y006580D01*
X008210Y006580D01*
X008210Y006582D01*
X008200Y006646D01*
X008180Y006708D01*
X008203Y006630D02*
X017050Y006630D01*
X017050Y006531D02*
X007830Y006531D01*
X007830Y006520D02*
X007830Y006580D01*
X007770Y006580D01*
X007770Y006520D01*
X007830Y006520D01*
X007830Y006140D01*
X007832Y006140D01*
X007896Y006150D01*
X007957Y006170D01*
X008015Y006200D01*
X008067Y006237D01*
X008113Y006283D01*
X008151Y006335D01*
X008180Y006393D01*
X008200Y006454D01*
X008210Y006518D01*
X008210Y006520D01*
X007830Y006520D01*
X007770Y006520D02*
X007770Y006140D01*
X007768Y006140D01*
X007704Y006150D01*
X007643Y006170D01*
X007585Y006200D01*
X007533Y006237D01*
X007487Y006283D01*
X007449Y006335D01*
X007420Y006393D01*
X007400Y006454D01*
X007390Y006518D01*
X007390Y006520D01*
X007770Y006520D01*
X007770Y006531D02*
X007300Y006531D01*
X007300Y006433D02*
X007407Y006433D01*
X007450Y006334D02*
X007300Y006334D01*
X007300Y006236D02*
X007535Y006236D01*
X007770Y006236D02*
X007830Y006236D01*
X007830Y006334D02*
X007770Y006334D01*
X007770Y006433D02*
X007830Y006433D01*
X007770Y006580D02*
X007390Y006580D01*
X007390Y006582D01*
X007400Y006646D01*
X007420Y006708D01*
X007449Y006765D01*
X007487Y006817D01*
X007533Y006863D01*
X007585Y006901D01*
X007643Y006930D01*
X007704Y006950D01*
X007768Y006960D01*
X007770Y006960D01*
X007770Y006580D01*
X007770Y006630D02*
X007830Y006630D01*
X007830Y006728D02*
X007770Y006728D01*
X007770Y006827D02*
X007830Y006827D01*
X007830Y006925D02*
X007770Y006925D01*
X007633Y006925D02*
X007300Y006925D01*
X007300Y006827D02*
X007497Y006827D01*
X007431Y006728D02*
X007300Y006728D01*
X007300Y006630D02*
X007397Y006630D01*
X007300Y007024D02*
X009150Y007024D01*
X009157Y006925D02*
X007967Y006925D01*
X008103Y006827D02*
X009198Y006827D01*
X009167Y007122D02*
X007300Y007122D01*
X007300Y007221D02*
X007468Y007221D01*
X007440Y007249D02*
X007499Y007190D01*
X008101Y007190D01*
X008160Y007249D01*
X008160Y007852D01*
X008101Y007910D01*
X007499Y007910D01*
X007440Y007852D01*
X007440Y007249D01*
X007440Y007319D02*
X007300Y007319D01*
X007300Y007418D02*
X007440Y007418D01*
X007440Y007516D02*
X007300Y007516D01*
X007300Y007615D02*
X007440Y007615D01*
X007440Y007713D02*
X007300Y007713D01*
X007300Y007812D02*
X007440Y007812D01*
X007300Y007910D02*
X009175Y007910D01*
X009175Y007812D02*
X008160Y007812D01*
X008160Y007713D02*
X009175Y007713D01*
X009175Y007615D02*
X008160Y007615D01*
X008160Y007516D02*
X009175Y007516D01*
X009161Y007418D02*
X008160Y007418D01*
X008160Y007319D02*
X009161Y007319D01*
X009175Y007221D02*
X008132Y007221D01*
X008193Y006433D02*
X017050Y006433D01*
X017050Y006334D02*
X008150Y006334D01*
X008065Y006236D02*
X017050Y006236D01*
X017050Y006137D02*
X007300Y006137D01*
X007300Y006039D02*
X017050Y006039D01*
X017050Y005940D02*
X007300Y005940D01*
X007300Y005842D02*
X007582Y005842D01*
X007596Y005855D02*
X007495Y005754D01*
X007440Y005622D01*
X007440Y005479D01*
X007495Y005346D01*
X007596Y005245D01*
X007728Y005190D01*
X007872Y005190D01*
X008004Y005245D01*
X008105Y005346D01*
X008160Y005479D01*
X008160Y005622D01*
X008105Y005754D01*
X008004Y005855D01*
X007872Y005910D01*
X007728Y005910D01*
X007596Y005855D01*
X007490Y005743D02*
X007300Y005743D01*
X007300Y005645D02*
X007449Y005645D01*
X007440Y005546D02*
X007300Y005546D01*
X007300Y005448D02*
X007453Y005448D01*
X007494Y005349D02*
X007300Y005349D01*
X007300Y005251D02*
X007590Y005251D01*
X007300Y005152D02*
X017050Y005152D01*
X017050Y005054D02*
X007300Y005054D01*
X007300Y004955D02*
X017050Y004955D01*
X017050Y004857D02*
X007300Y004857D01*
X007300Y004758D02*
X017050Y004758D01*
X017050Y004660D02*
X007300Y004660D01*
X007300Y004561D02*
X009723Y004561D01*
X009685Y004523D02*
X008609Y004523D01*
X008421Y004335D01*
X008160Y004335D01*
X008160Y004477D01*
X008101Y004535D01*
X007499Y004535D01*
X007440Y004477D01*
X007440Y003874D01*
X007499Y003815D01*
X008101Y003815D01*
X008160Y003874D01*
X008160Y004015D01*
X008554Y004015D01*
X008741Y004203D01*
X009685Y004203D01*
X009764Y004124D01*
X009961Y004124D01*
X010101Y004264D01*
X010101Y004462D01*
X009961Y004601D01*
X009764Y004601D01*
X009685Y004523D01*
X010002Y004561D02*
X017050Y004561D01*
X017050Y004463D02*
X010100Y004463D01*
X010101Y004364D02*
X017050Y004364D01*
X017050Y004266D02*
X010101Y004266D01*
X010005Y004167D02*
X017050Y004167D01*
X017050Y004069D02*
X008607Y004069D01*
X008706Y004167D02*
X009720Y004167D01*
X008549Y004463D02*
X008160Y004463D01*
X008160Y004364D02*
X008450Y004364D01*
X008160Y003970D02*
X015520Y003970D01*
X015524Y003972D02*
X015378Y003912D01*
X015267Y003800D01*
X015206Y003654D01*
X015206Y003496D01*
X015267Y003350D01*
X015378Y003239D01*
X015524Y003178D01*
X016276Y003178D01*
X016422Y003239D01*
X016533Y003350D01*
X016594Y003496D01*
X016594Y003654D01*
X016533Y003800D01*
X016422Y003912D01*
X016276Y003972D01*
X015524Y003972D01*
X015338Y003872D02*
X008158Y003872D01*
X008015Y003526D02*
X007957Y003555D01*
X007896Y003575D01*
X007832Y003585D01*
X007830Y003585D01*
X007830Y003205D01*
X008210Y003205D01*
X008210Y003207D01*
X008200Y003271D01*
X008180Y003333D01*
X008151Y003390D01*
X008113Y003442D01*
X008067Y003488D01*
X008015Y003526D01*
X008077Y003478D02*
X015214Y003478D01*
X015206Y003576D02*
X007889Y003576D01*
X007830Y003576D02*
X007770Y003576D01*
X007770Y003585D02*
X007768Y003585D01*
X007704Y003575D01*
X007643Y003555D01*
X007585Y003526D01*
X007533Y003488D01*
X007487Y003442D01*
X007449Y003390D01*
X007420Y003333D01*
X007400Y003271D01*
X007390Y003207D01*
X007390Y003205D01*
X007770Y003205D01*
X007770Y003145D01*
X007830Y003145D01*
X007830Y002765D01*
X007832Y002765D01*
X007896Y002775D01*
X007957Y002795D01*
X008015Y002825D01*
X008067Y002862D01*
X008113Y002908D01*
X008151Y002960D01*
X008180Y003018D01*
X008200Y003079D01*
X008210Y003143D01*
X008210Y003145D01*
X007830Y003145D01*
X007830Y003205D01*
X007770Y003205D01*
X007770Y003585D01*
X007711Y003576D02*
X007300Y003576D01*
X007300Y003478D02*
X007523Y003478D01*
X007444Y003379D02*
X007300Y003379D01*
X007300Y003281D02*
X007403Y003281D01*
X007390Y003145D02*
X007390Y003143D01*
X007400Y003079D01*
X007420Y003018D01*
X007449Y002960D01*
X007487Y002908D01*
X007533Y002862D01*
X007585Y002825D01*
X007643Y002795D01*
X007704Y002775D01*
X007768Y002765D01*
X007770Y002765D01*
X007770Y003145D01*
X007390Y003145D01*
X007399Y003084D02*
X007300Y003084D01*
X007300Y003182D02*
X007770Y003182D01*
X007830Y003182D02*
X015515Y003182D01*
X015568Y003022D02*
X015499Y003011D01*
X015432Y002989D01*
X015369Y002957D01*
X015312Y002916D01*
X015262Y002866D01*
X015221Y002809D01*
X015189Y002747D01*
X015167Y002680D01*
X015158Y002624D01*
X015852Y002624D01*
X015852Y003022D01*
X015568Y003022D01*
X015424Y002985D02*
X008163Y002985D01*
X008201Y003084D02*
X017050Y003084D01*
X017050Y003182D02*
X016285Y003182D01*
X016232Y003022D02*
X015948Y003022D01*
X015948Y002624D01*
X015852Y002624D01*
X015852Y002527D01*
X015948Y002527D01*
X015948Y002128D01*
X016232Y002128D01*
X016301Y002139D01*
X016368Y002161D01*
X016431Y002193D01*
X016488Y002234D01*
X016538Y002284D01*
X016579Y002341D01*
X016611Y002404D01*
X016633Y002471D01*
X016642Y002527D01*
X015948Y002527D01*
X015948Y002624D01*
X016642Y002624D01*
X016633Y002680D01*
X016611Y002747D01*
X016579Y002809D01*
X016538Y002866D01*
X016488Y002916D01*
X016431Y002957D01*
X016368Y002989D01*
X016301Y003011D01*
X016232Y003022D01*
X016376Y002985D02*
X017050Y002985D01*
X017050Y002887D02*
X016517Y002887D01*
X016590Y002788D02*
X017050Y002788D01*
X017050Y002690D02*
X016629Y002690D01*
X016636Y002493D02*
X017050Y002493D01*
X017050Y002591D02*
X015948Y002591D01*
X015852Y002591D02*
X007300Y002591D01*
X007300Y002493D02*
X007626Y002493D01*
X007596Y002480D02*
X007495Y002379D01*
X007440Y002247D01*
X007440Y002104D01*
X007495Y001971D01*
X007596Y001870D01*
X007728Y001815D01*
X007872Y001815D01*
X008004Y001870D01*
X008105Y001971D01*
X008160Y002104D01*
X008160Y002247D01*
X008105Y002379D01*
X008004Y002480D01*
X007872Y002535D01*
X007728Y002535D01*
X007596Y002480D01*
X007510Y002394D02*
X007300Y002394D01*
X007300Y002296D02*
X007460Y002296D01*
X007440Y002197D02*
X007300Y002197D01*
X007300Y002099D02*
X007442Y002099D01*
X007483Y002000D02*
X007300Y002000D01*
X007300Y001902D02*
X007564Y001902D01*
X007300Y001803D02*
X017050Y001803D01*
X017050Y001705D02*
X007300Y001705D01*
X007300Y001658D02*
X007300Y020925D01*
X017050Y020925D01*
X017050Y001658D01*
X007300Y001658D01*
X007974Y002493D02*
X015164Y002493D01*
X015167Y002471D02*
X015189Y002404D01*
X015221Y002341D01*
X015262Y002284D01*
X015312Y002234D01*
X015369Y002193D01*
X015432Y002161D01*
X015499Y002139D01*
X015568Y002128D01*
X015852Y002128D01*
X015852Y002527D01*
X015158Y002527D01*
X015167Y002471D01*
X015194Y002394D02*
X008090Y002394D01*
X008140Y002296D02*
X015254Y002296D01*
X015363Y002197D02*
X008160Y002197D01*
X008158Y002099D02*
X017050Y002099D01*
X017050Y002197D02*
X016437Y002197D01*
X016546Y002296D02*
X017050Y002296D01*
X017050Y002394D02*
X016606Y002394D01*
X017050Y002000D02*
X008117Y002000D01*
X008036Y001902D02*
X017050Y001902D01*
X015948Y002197D02*
X015852Y002197D01*
X015852Y002296D02*
X015948Y002296D01*
X015948Y002394D02*
X015852Y002394D01*
X015852Y002493D02*
X015948Y002493D01*
X015948Y002690D02*
X015852Y002690D01*
X015852Y002788D02*
X015948Y002788D01*
X015948Y002887D02*
X015852Y002887D01*
X015852Y002985D02*
X015948Y002985D01*
X016464Y003281D02*
X017050Y003281D01*
X017050Y003379D02*
X016545Y003379D01*
X016586Y003478D02*
X017050Y003478D01*
X017050Y003576D02*
X016594Y003576D01*
X016585Y003675D02*
X017050Y003675D01*
X017050Y003773D02*
X016544Y003773D01*
X016462Y003872D02*
X017050Y003872D01*
X017050Y003970D02*
X016280Y003970D01*
X015336Y003281D02*
X008197Y003281D01*
X008156Y003379D02*
X015255Y003379D01*
X015215Y003675D02*
X007300Y003675D01*
X007300Y003773D02*
X015256Y003773D01*
X015283Y002887D02*
X008091Y002887D01*
X007936Y002788D02*
X015210Y002788D01*
X015171Y002690D02*
X007300Y002690D01*
X007300Y002788D02*
X007664Y002788D01*
X007770Y002788D02*
X007830Y002788D01*
X007830Y002887D02*
X007770Y002887D01*
X007770Y002985D02*
X007830Y002985D01*
X007830Y003084D02*
X007770Y003084D01*
X007770Y003281D02*
X007830Y003281D01*
X007830Y003379D02*
X007770Y003379D01*
X007770Y003478D02*
X007830Y003478D01*
X007509Y002887D02*
X007300Y002887D01*
X007300Y002985D02*
X007437Y002985D01*
X007442Y003872D02*
X007300Y003872D01*
X007300Y003970D02*
X007440Y003970D01*
X007440Y004069D02*
X007300Y004069D01*
X007300Y004167D02*
X007440Y004167D01*
X007440Y004266D02*
X007300Y004266D01*
X007300Y004364D02*
X007440Y004364D01*
X007440Y004463D02*
X007300Y004463D01*
X008010Y005251D02*
X017050Y005251D01*
X017050Y005349D02*
X008106Y005349D01*
X008147Y005448D02*
X017050Y005448D01*
X017050Y005546D02*
X008160Y005546D01*
X008151Y005645D02*
X017050Y005645D01*
X017050Y005743D02*
X008110Y005743D01*
X008018Y005842D02*
X017050Y005842D01*
X014447Y007910D02*
X014090Y007910D01*
X013760Y007910D02*
X009875Y007910D01*
X009875Y007812D02*
X013686Y007812D01*
X013686Y007713D02*
X009875Y007713D01*
X009875Y007615D02*
X013710Y007615D01*
X012963Y010964D02*
X009875Y010964D01*
X009875Y011062D02*
X012963Y011062D01*
X012963Y011161D02*
X009875Y011161D01*
X009875Y011259D02*
X012963Y011259D01*
X012963Y011358D02*
X009875Y011358D01*
X009550Y011838D02*
X009525Y011863D01*
X009175Y011850D02*
X007300Y011850D01*
X007300Y011752D02*
X009175Y011752D01*
X009175Y011653D02*
X007300Y011653D01*
X007300Y011555D02*
X009175Y011555D01*
X009175Y011456D02*
X007300Y011456D01*
X007300Y011358D02*
X009175Y011358D01*
X009175Y011259D02*
X008127Y011259D01*
X008101Y011285D02*
X008160Y011227D01*
X008160Y010624D01*
X008101Y010565D01*
X007499Y010565D01*
X007440Y010624D01*
X007440Y011227D01*
X007499Y011285D01*
X008101Y011285D01*
X008160Y011161D02*
X009175Y011161D01*
X009175Y011062D02*
X008160Y011062D01*
X008160Y010964D02*
X009175Y010964D01*
X009175Y010865D02*
X008160Y010865D01*
X008160Y010767D02*
X009175Y010767D01*
X009175Y010668D02*
X008160Y010668D01*
X008106Y010570D02*
X009175Y010570D01*
X009175Y010471D02*
X007300Y010471D01*
X007300Y010373D02*
X009175Y010373D01*
X009175Y010274D02*
X008017Y010274D01*
X008015Y010276D02*
X007957Y010305D01*
X007896Y010325D01*
X007832Y010335D01*
X007830Y010335D01*
X007830Y009955D01*
X008210Y009955D01*
X008210Y009957D01*
X008200Y010021D01*
X008180Y010083D01*
X008151Y010140D01*
X008113Y010192D01*
X008067Y010238D01*
X008015Y010276D01*
X008125Y010176D02*
X009175Y010176D01*
X009175Y010077D02*
X008182Y010077D01*
X008207Y009979D02*
X009175Y009979D01*
X009175Y009880D02*
X008208Y009880D01*
X008210Y009893D02*
X008210Y009895D01*
X007830Y009895D01*
X007830Y009515D01*
X007832Y009515D01*
X007896Y009525D01*
X007957Y009545D01*
X008015Y009575D01*
X008067Y009612D01*
X008113Y009658D01*
X008151Y009710D01*
X008180Y009768D01*
X008200Y009829D01*
X008210Y009893D01*
X008184Y009782D02*
X009175Y009782D01*
X009175Y009683D02*
X008131Y009683D01*
X008029Y009585D02*
X009175Y009585D01*
X009175Y009486D02*
X007300Y009486D01*
X007300Y009388D02*
X008850Y009388D01*
X008761Y009289D02*
X007300Y009289D01*
X007300Y009191D02*
X007556Y009191D01*
X007596Y009230D02*
X007495Y009129D01*
X007440Y008997D01*
X007440Y008854D01*
X007495Y008721D01*
X007596Y008620D01*
X007728Y008565D01*
X007872Y008565D01*
X008004Y008620D01*
X008105Y008721D01*
X008160Y008854D01*
X008160Y008997D01*
X008105Y009129D01*
X008004Y009230D01*
X007872Y009285D01*
X007728Y009285D01*
X007596Y009230D01*
X007480Y009092D02*
X007300Y009092D01*
X007300Y008994D02*
X007440Y008994D01*
X007440Y008895D02*
X007300Y008895D01*
X007300Y008797D02*
X007464Y008797D01*
X007518Y008698D02*
X007300Y008698D01*
X007300Y008600D02*
X007645Y008600D01*
X007955Y008600D02*
X009175Y008600D01*
X009175Y008698D02*
X008082Y008698D01*
X008136Y008797D02*
X009175Y008797D01*
X009175Y008895D02*
X008160Y008895D01*
X008160Y008994D02*
X008869Y008994D01*
X008770Y009092D02*
X008120Y009092D01*
X008044Y009191D02*
X008761Y009191D01*
X009000Y009200D02*
X009038Y009238D01*
X009300Y009238D01*
X009500Y009038D01*
X009500Y009013D01*
X009525Y008988D01*
X009175Y008994D02*
X009131Y008994D01*
X009150Y009388D02*
X009175Y009388D01*
X009175Y008501D02*
X007300Y008501D01*
X007300Y008403D02*
X009175Y008403D01*
X009175Y008304D02*
X007300Y008304D01*
X007300Y008206D02*
X009175Y008206D01*
X009175Y008107D02*
X007300Y008107D01*
X007300Y008009D02*
X009175Y008009D01*
X009488Y008325D02*
X009525Y008363D01*
X010540Y007375D02*
X010488Y007322D01*
X007830Y009585D02*
X007770Y009585D01*
X007770Y009515D02*
X007770Y009895D01*
X007830Y009895D01*
X007830Y009955D01*
X007770Y009955D01*
X007770Y009895D01*
X007390Y009895D01*
X007390Y009893D01*
X007400Y009829D01*
X007420Y009768D01*
X007449Y009710D01*
X007487Y009658D01*
X007533Y009612D01*
X007585Y009575D01*
X007643Y009545D01*
X007704Y009525D01*
X007768Y009515D01*
X007770Y009515D01*
X007770Y009683D02*
X007830Y009683D01*
X007830Y009782D02*
X007770Y009782D01*
X007770Y009880D02*
X007830Y009880D01*
X007770Y009955D02*
X007390Y009955D01*
X007390Y009957D01*
X007400Y010021D01*
X007420Y010083D01*
X007449Y010140D01*
X007487Y010192D01*
X007533Y010238D01*
X007585Y010276D01*
X007643Y010305D01*
X007704Y010325D01*
X007768Y010335D01*
X007770Y010335D01*
X007770Y009955D01*
X007770Y009979D02*
X007830Y009979D01*
X007830Y010077D02*
X007770Y010077D01*
X007770Y010176D02*
X007830Y010176D01*
X007830Y010274D02*
X007770Y010274D01*
X007583Y010274D02*
X007300Y010274D01*
X007300Y010176D02*
X007475Y010176D01*
X007418Y010077D02*
X007300Y010077D01*
X007300Y009979D02*
X007393Y009979D01*
X007392Y009880D02*
X007300Y009880D01*
X007300Y009782D02*
X007416Y009782D01*
X007469Y009683D02*
X007300Y009683D01*
X007300Y009585D02*
X007571Y009585D01*
X007494Y010570D02*
X007300Y010570D01*
X007300Y010668D02*
X007440Y010668D01*
X007440Y010767D02*
X007300Y010767D01*
X007300Y010865D02*
X007440Y010865D01*
X007440Y010964D02*
X007300Y010964D01*
X007300Y011062D02*
X007440Y011062D01*
X007440Y011161D02*
X007300Y011161D01*
X007300Y011259D02*
X007473Y011259D01*
X007300Y011949D02*
X009175Y011949D01*
X009175Y012047D02*
X007300Y012047D01*
X007300Y012146D02*
X009175Y012146D01*
X009175Y012244D02*
X007300Y012244D01*
X007300Y012343D02*
X009175Y012343D01*
X009175Y012441D02*
X007300Y012441D01*
X007300Y012540D02*
X009175Y012540D01*
X009175Y012638D02*
X007300Y012638D01*
X007300Y012737D02*
X009175Y012737D01*
X009175Y012835D02*
X007300Y012835D01*
X007300Y012934D02*
X009175Y012934D01*
X009175Y013032D02*
X007300Y013032D01*
X007300Y013131D02*
X009175Y013131D01*
X009175Y013229D02*
X007300Y013229D01*
X007300Y013328D02*
X009175Y013328D01*
X009175Y013426D02*
X007300Y013426D01*
X007300Y013525D02*
X009175Y013525D01*
X009175Y013623D02*
X007300Y013623D01*
X007300Y013722D02*
X009175Y013722D01*
X009143Y013820D02*
X007300Y013820D01*
X007300Y013919D02*
X009032Y013919D01*
X008938Y014017D02*
X007300Y014017D01*
X007300Y014116D02*
X008840Y014116D01*
X008741Y014214D02*
X007300Y014214D01*
X007300Y014313D02*
X008643Y014313D01*
X008593Y014411D02*
X007300Y014411D01*
X007300Y014510D02*
X008575Y014510D01*
X008581Y014608D02*
X007300Y014608D01*
X007300Y014707D02*
X008621Y014707D01*
X008710Y014805D02*
X007300Y014805D01*
X007300Y014904D02*
X017050Y014904D01*
X017050Y015002D02*
X007300Y015002D01*
X007300Y015101D02*
X017050Y015101D01*
X017050Y015199D02*
X007300Y015199D01*
X007300Y015298D02*
X017050Y015298D01*
X017050Y015396D02*
X007300Y015396D01*
X007300Y015495D02*
X017050Y015495D01*
X017050Y015593D02*
X007300Y015593D01*
X007300Y015692D02*
X017050Y015692D01*
X017050Y015790D02*
X007300Y015790D01*
X007300Y015889D02*
X017050Y015889D01*
X017050Y015987D02*
X007300Y015987D01*
X007300Y016086D02*
X017050Y016086D01*
X017050Y016184D02*
X007300Y016184D01*
X007300Y016283D02*
X017050Y016283D01*
X017050Y016381D02*
X007300Y016381D01*
X007300Y016480D02*
X017050Y016480D01*
X017050Y016578D02*
X007300Y016578D01*
X007300Y016677D02*
X017050Y016677D01*
X017050Y016775D02*
X007300Y016775D01*
X007300Y016874D02*
X015157Y016874D01*
X015091Y016901D02*
X015237Y016841D01*
X015988Y016841D01*
X016134Y016901D01*
X016246Y017013D01*
X016306Y017159D01*
X016306Y017317D01*
X016246Y017462D01*
X016134Y017574D01*
X015988Y017635D01*
X015237Y017635D01*
X015091Y017574D01*
X014979Y017462D01*
X014919Y017317D01*
X014919Y017159D01*
X014979Y017013D01*
X015091Y016901D01*
X015020Y016972D02*
X007300Y016972D01*
X007300Y017071D02*
X014955Y017071D01*
X014919Y017169D02*
X007300Y017169D01*
X007300Y017268D02*
X014919Y017268D01*
X014939Y017366D02*
X007300Y017366D01*
X007300Y017465D02*
X014981Y017465D01*
X015080Y017563D02*
X007300Y017563D01*
X007300Y017662D02*
X017050Y017662D01*
X017050Y017760D02*
X009160Y017760D01*
X009226Y017826D02*
X009226Y018024D01*
X009086Y018164D01*
X008889Y018164D01*
X008800Y018075D01*
X007925Y018075D01*
X007836Y018164D01*
X007639Y018164D01*
X007499Y018024D01*
X007499Y017826D01*
X007639Y017686D01*
X007836Y017686D01*
X007925Y017775D01*
X008800Y017775D01*
X008889Y017686D01*
X009086Y017686D01*
X009226Y017826D01*
X009226Y017859D02*
X015194Y017859D01*
X015237Y017841D02*
X015988Y017841D01*
X016134Y017901D01*
X016246Y018013D01*
X016306Y018159D01*
X016306Y018317D01*
X016246Y018462D01*
X016134Y018574D01*
X015988Y018635D01*
X015237Y018635D01*
X015091Y018574D01*
X014979Y018462D01*
X014919Y018317D01*
X014919Y018159D01*
X014979Y018013D01*
X015091Y017901D01*
X015237Y017841D01*
X015035Y017957D02*
X009226Y017957D01*
X009195Y018056D02*
X014961Y018056D01*
X014921Y018154D02*
X009096Y018154D01*
X008879Y018154D02*
X007846Y018154D01*
X007738Y017925D02*
X008988Y017925D01*
X008815Y017760D02*
X007910Y017760D01*
X007565Y017760D02*
X007300Y017760D01*
X007300Y017859D02*
X007499Y017859D01*
X007499Y017957D02*
X007300Y017957D01*
X007300Y018056D02*
X007530Y018056D01*
X007629Y018154D02*
X007300Y018154D01*
X007300Y018253D02*
X014919Y018253D01*
X014933Y018351D02*
X007300Y018351D01*
X007300Y018450D02*
X014974Y018450D01*
X015065Y018548D02*
X007300Y018548D01*
X007300Y018647D02*
X017050Y018647D01*
X017050Y018745D02*
X007300Y018745D01*
X007300Y018844D02*
X015230Y018844D01*
X015237Y018841D02*
X015988Y018841D01*
X016134Y018901D01*
X016246Y019013D01*
X016306Y019159D01*
X016306Y019317D01*
X016246Y019462D01*
X016134Y019574D01*
X015988Y019635D01*
X015237Y019635D01*
X015091Y019574D01*
X014979Y019462D01*
X014919Y019317D01*
X014919Y019159D01*
X014979Y019013D01*
X015091Y018901D01*
X015237Y018841D01*
X015050Y018942D02*
X007300Y018942D01*
X007300Y019041D02*
X014968Y019041D01*
X014927Y019139D02*
X007300Y019139D01*
X007300Y019238D02*
X014919Y019238D01*
X014927Y019336D02*
X007300Y019336D01*
X007300Y019435D02*
X014968Y019435D01*
X015050Y019533D02*
X007300Y019533D01*
X007300Y019632D02*
X015230Y019632D01*
X015280Y019791D02*
X015564Y019791D01*
X015564Y020189D01*
X015661Y020189D01*
X015661Y019791D01*
X015945Y019791D01*
X016014Y019802D01*
X016081Y019824D01*
X016144Y019855D01*
X016200Y019897D01*
X016250Y019947D01*
X016292Y020003D01*
X016323Y020066D01*
X016345Y020133D01*
X016354Y020189D01*
X015661Y020189D01*
X015661Y020286D01*
X016354Y020286D01*
X016345Y020342D01*
X016323Y020409D01*
X016292Y020472D01*
X016250Y020529D01*
X016200Y020579D01*
X016144Y020620D01*
X016081Y020652D01*
X016014Y020674D01*
X015945Y020685D01*
X015661Y020685D01*
X015661Y020286D01*
X015564Y020286D01*
X015564Y020189D01*
X014871Y020189D01*
X014880Y020133D01*
X014902Y020066D01*
X014933Y020003D01*
X014975Y019947D01*
X015025Y019897D01*
X015081Y019855D01*
X015144Y019824D01*
X015211Y019802D01*
X015280Y019791D01*
X015134Y019829D02*
X007300Y019829D01*
X007300Y019927D02*
X014994Y019927D01*
X014922Y020026D02*
X007300Y020026D01*
X007300Y020124D02*
X014883Y020124D01*
X014871Y020286D02*
X015564Y020286D01*
X015564Y020685D01*
X015280Y020685D01*
X015211Y020674D01*
X015144Y020652D01*
X015081Y020620D01*
X015025Y020579D01*
X014975Y020529D01*
X014933Y020472D01*
X014902Y020409D01*
X014880Y020342D01*
X014871Y020286D01*
X014876Y020321D02*
X007300Y020321D01*
X007300Y020223D02*
X015564Y020223D01*
X015661Y020223D02*
X017050Y020223D01*
X017050Y020321D02*
X016349Y020321D01*
X016318Y020420D02*
X017050Y020420D01*
X017050Y020518D02*
X016258Y020518D01*
X016148Y020617D02*
X017050Y020617D01*
X017050Y020715D02*
X007300Y020715D01*
X007300Y020617D02*
X015077Y020617D01*
X014967Y020518D02*
X007300Y020518D01*
X007300Y020420D02*
X014907Y020420D01*
X015564Y020420D02*
X015661Y020420D01*
X015661Y020518D02*
X015564Y020518D01*
X015564Y020617D02*
X015661Y020617D01*
X015661Y020321D02*
X015564Y020321D01*
X015564Y020124D02*
X015661Y020124D01*
X015661Y020026D02*
X015564Y020026D01*
X015564Y019927D02*
X015661Y019927D01*
X015661Y019829D02*
X015564Y019829D01*
X015995Y019632D02*
X017050Y019632D01*
X017050Y019730D02*
X007300Y019730D01*
X007300Y020814D02*
X017050Y020814D01*
X017050Y020912D02*
X007300Y020912D01*
X009140Y014805D02*
X017050Y014805D01*
X017050Y014707D02*
X009238Y014707D01*
X009534Y014411D02*
X012198Y014411D01*
X012100Y014313D02*
X009643Y014313D01*
X009756Y014214D02*
X012061Y014214D01*
X015995Y018844D02*
X017050Y018844D01*
X017050Y018942D02*
X016175Y018942D01*
X016257Y019041D02*
X017050Y019041D01*
X017050Y019139D02*
X016298Y019139D01*
X016306Y019238D02*
X017050Y019238D01*
X017050Y019336D02*
X016298Y019336D01*
X016257Y019435D02*
X017050Y019435D01*
X017050Y019533D02*
X016175Y019533D01*
X016091Y019829D02*
X017050Y019829D01*
X017050Y019927D02*
X016231Y019927D01*
X016303Y020026D02*
X017050Y020026D01*
X017050Y020124D02*
X016342Y020124D01*
X016160Y018548D02*
X017050Y018548D01*
X017050Y018450D02*
X016251Y018450D01*
X016292Y018351D02*
X017050Y018351D01*
X017050Y018253D02*
X016306Y018253D01*
X016304Y018154D02*
X017050Y018154D01*
X017050Y018056D02*
X016264Y018056D01*
X016190Y017957D02*
X017050Y017957D01*
X017050Y017859D02*
X016031Y017859D01*
X016145Y017563D02*
X017050Y017563D01*
X017050Y017465D02*
X016244Y017465D01*
X016286Y017366D02*
X017050Y017366D01*
X017050Y017268D02*
X016306Y017268D01*
X016306Y017169D02*
X017050Y017169D01*
X017050Y017071D02*
X016270Y017071D01*
X016205Y016972D02*
X017050Y016972D01*
X017050Y016874D02*
X016068Y016874D01*
D19*
X009525Y013950D02*
X009525Y011863D01*
X009525Y008988D01*
X009525Y008363D01*
X009525Y007238D01*
X009550Y007263D01*
X009750Y007263D01*
X009525Y007238D02*
X009525Y007038D01*
X009500Y007013D01*
X009525Y013950D02*
X009313Y014138D01*
X008925Y014525D01*
D20*
X009381Y007406D02*
X009525Y007263D01*
X009550Y007263D01*
D21*
X009381Y007406D02*
X009444Y007469D01*
X009863Y004363D02*
X008675Y004363D01*
X008488Y004175D01*
X007800Y004175D01*
X013925Y007738D02*
X014613Y007738D01*
D22*
X003675Y008050D02*
X002300Y008050D01*
X003675Y004175D02*
X003050Y003550D01*
X002300Y003550D01*
X003675Y012175D02*
X003300Y012550D01*
X002300Y012550D01*
D23*
X003675Y012175D02*
X003675Y008050D01*
X003675Y004175D01*
D24*
X004800Y010925D02*
X004800Y013050D01*
X004300Y013550D01*
X002300Y013550D01*
M02*
