G75*
G70*
%OFA0B0*%
%FSLAX24Y24*%
%IPPOS*%
%LPD*%
%AMOC8*
5,1,8,0,0,1.08239X$1,22.5*
%
%ADD10C,0.0000*%
%ADD11C,0.0060*%
%ADD12C,0.0020*%
%ADD13C,0.0100*%
%ADD14C,0.0040*%
%ADD15R,0.0098X0.0089*%
%ADD16C,0.0050*%
%ADD17C,0.0220*%
%ADD18C,0.0080*%
D10*
X001569Y001508D02*
X001569Y021380D01*
X017226Y021380D01*
X017226Y001508D01*
X001569Y001508D01*
X002638Y002163D02*
X003438Y002163D01*
X003038Y001763D02*
X003038Y002563D01*
X003800Y003200D02*
X003800Y004000D01*
X003400Y003600D02*
X004200Y003600D01*
X004067Y005450D02*
X004067Y006250D01*
X003667Y005850D02*
X004467Y005850D01*
X002750Y006225D02*
X001950Y006225D01*
X002350Y005825D02*
X002350Y006625D01*
X003950Y009700D02*
X003950Y010500D01*
X003550Y010100D02*
X004350Y010100D01*
X002750Y010725D02*
X001950Y010725D01*
X002350Y010325D02*
X002350Y011125D01*
X004175Y014275D02*
X004975Y014275D01*
X004575Y013875D02*
X004575Y014675D01*
X004050Y015300D02*
X003250Y015300D01*
X003650Y014900D02*
X003650Y015700D01*
X002625Y015600D02*
X001825Y015600D01*
X002225Y015200D02*
X002225Y016000D01*
X004400Y018175D02*
X005200Y018175D01*
X004800Y017775D02*
X004800Y018575D01*
X006025Y017238D02*
X006825Y017238D01*
X006425Y016838D02*
X006425Y017638D01*
X006900Y018238D02*
X007700Y018238D01*
X007300Y017838D02*
X007300Y018638D01*
X006925Y019150D02*
X006925Y019950D01*
X006525Y019550D02*
X007325Y019550D01*
X007550Y015700D02*
X007550Y014900D01*
X007150Y015300D02*
X007950Y015300D01*
X006400Y013275D02*
X006400Y012475D01*
X006000Y012875D02*
X006800Y012875D01*
X007425Y012013D02*
X007425Y011213D01*
X007025Y011613D02*
X007825Y011613D01*
X008400Y011800D02*
X009200Y011800D01*
X009400Y012050D02*
X010200Y012050D01*
X010450Y011800D02*
X011250Y011800D01*
X011538Y012025D02*
X011538Y012825D01*
X011238Y012425D02*
X010438Y012425D01*
X010850Y012200D02*
X010850Y011400D01*
X010838Y012025D02*
X010838Y012825D01*
X011138Y012425D02*
X011938Y012425D01*
X012125Y012463D02*
X012925Y012463D01*
X012813Y012450D02*
X013613Y012450D01*
X013213Y012050D02*
X013213Y012850D01*
X012525Y012863D02*
X012525Y012063D01*
X013650Y011225D02*
X014450Y011225D01*
X014050Y010825D02*
X014050Y011625D01*
X014988Y010775D02*
X014988Y009975D01*
X014950Y009713D02*
X014950Y008913D01*
X014988Y008675D02*
X014988Y007875D01*
X014988Y008425D02*
X014988Y009225D01*
X014950Y009463D02*
X014950Y010263D01*
X014588Y010375D02*
X015388Y010375D01*
X015350Y009863D02*
X014550Y009863D01*
X014550Y009313D02*
X015350Y009313D01*
X015388Y008825D02*
X014588Y008825D01*
X014588Y008275D02*
X015388Y008275D01*
X014550Y007475D02*
X014550Y006675D01*
X014150Y007075D02*
X014950Y007075D01*
X015188Y006675D02*
X015988Y006675D01*
X015588Y006275D02*
X015588Y007075D01*
X013425Y007013D02*
X012625Y007013D01*
X013025Y006613D02*
X013025Y007413D01*
X012613Y006175D02*
X012613Y005375D01*
X012213Y005775D02*
X013013Y005775D01*
X011125Y004463D02*
X010325Y004463D01*
X010725Y004063D02*
X010725Y004863D01*
X010138Y005075D02*
X009338Y005075D01*
X009738Y004675D02*
X009738Y005475D01*
X010625Y006600D02*
X010625Y007400D01*
X010225Y007000D02*
X011025Y007000D01*
X009850Y008300D02*
X009050Y008300D01*
X008863Y008463D02*
X008063Y008463D01*
X008463Y008063D02*
X008463Y008863D01*
X009050Y008925D02*
X009850Y008925D01*
X009450Y008700D02*
X009450Y007900D01*
X009450Y008525D02*
X009450Y009325D01*
X008963Y009525D02*
X008963Y010325D01*
X008800Y010775D02*
X008800Y011575D01*
X008800Y011400D02*
X008800Y012200D01*
X008800Y012025D02*
X008800Y012825D01*
X008400Y012425D02*
X009200Y012425D01*
X009800Y012450D02*
X009800Y011650D01*
X009200Y011175D02*
X008400Y011175D01*
X008563Y009925D02*
X009363Y009925D01*
X011713Y009363D02*
X012513Y009363D01*
X012113Y008963D02*
X012113Y009763D01*
X014600Y012875D02*
X015400Y012875D01*
X015000Y012475D02*
X015000Y013275D01*
X014688Y013925D02*
X014688Y014725D01*
X014288Y014325D02*
X015088Y014325D01*
X015825Y015150D02*
X016625Y015150D01*
X016550Y015613D02*
X016550Y016413D01*
X016150Y016013D02*
X016950Y016013D01*
X016225Y015550D02*
X016225Y014750D01*
X016350Y014563D02*
X016350Y013763D01*
X015950Y014163D02*
X016750Y014163D01*
X015075Y016038D02*
X014275Y016038D01*
X014675Y015638D02*
X014675Y016438D01*
X015613Y018338D02*
X015613Y019138D01*
X015213Y018738D02*
X016013Y018738D01*
X011300Y019484D02*
X010500Y019484D01*
X010900Y019084D02*
X010900Y019884D01*
X013975Y003425D02*
X013975Y002625D01*
X014325Y002975D02*
X015125Y002975D01*
X015500Y003075D02*
X016300Y003075D01*
X015900Y002675D02*
X015900Y003475D01*
X014725Y003375D02*
X014725Y002575D01*
X014375Y003025D02*
X013575Y003025D01*
X012325Y002800D02*
X011525Y002800D01*
X011925Y002400D02*
X011925Y003200D01*
X009513Y002813D02*
X008713Y002813D01*
X009113Y002413D02*
X009113Y003213D01*
X009113Y002388D02*
X009113Y001588D01*
X008713Y001988D02*
X009513Y001988D01*
D11*
X011244Y001570D02*
X011244Y004030D01*
X012606Y004030D01*
X012606Y001570D01*
X011244Y001570D01*
X010463Y004825D02*
X014763Y004825D01*
X014780Y004827D01*
X014797Y004831D01*
X014813Y004838D01*
X014827Y004848D01*
X014840Y004861D01*
X014850Y004875D01*
X014857Y004891D01*
X014861Y004908D01*
X014863Y004925D01*
X014863Y005325D01*
X014863Y006225D02*
X014863Y006625D01*
X014861Y006642D01*
X014857Y006659D01*
X014850Y006675D01*
X014840Y006689D01*
X014827Y006702D01*
X014813Y006712D01*
X014797Y006719D01*
X014780Y006723D01*
X014763Y006725D01*
X010463Y006725D01*
X010446Y006723D01*
X010429Y006719D01*
X010413Y006712D01*
X010399Y006702D01*
X010386Y006689D01*
X010376Y006675D01*
X010369Y006659D01*
X010365Y006642D01*
X010363Y006625D01*
X010363Y006225D01*
X010363Y005325D02*
X010363Y004925D01*
X010365Y004908D01*
X010369Y004891D01*
X010376Y004875D01*
X010386Y004861D01*
X010399Y004848D01*
X010413Y004838D01*
X010429Y004831D01*
X010446Y004827D01*
X010463Y004825D01*
X012363Y005525D02*
X012363Y005775D01*
X012363Y006025D01*
X012513Y006025D02*
X012513Y005525D01*
X012713Y005525D01*
X012713Y006025D01*
X012513Y006025D01*
X012863Y006025D02*
X012863Y005775D01*
X012863Y005525D01*
X010882Y007374D02*
X010455Y007801D01*
X010455Y007588D02*
X010882Y007588D01*
X010882Y007801D02*
X010455Y007374D01*
X010669Y007374D02*
X010669Y007801D01*
X007198Y011895D02*
X005770Y011895D01*
X005602Y011895D01*
X005600Y012325D02*
X005600Y012425D01*
X005600Y012825D02*
X005600Y012925D01*
X005600Y013325D02*
X005600Y013425D01*
X005602Y013855D02*
X005770Y013855D01*
X007198Y013855D01*
X007200Y013425D02*
X007200Y013325D01*
X007200Y012925D02*
X007200Y012825D01*
X007200Y012425D02*
X007200Y012325D01*
X014740Y012315D02*
X014740Y012535D01*
X014740Y012315D02*
X015060Y012315D01*
X014740Y013215D02*
X014740Y013435D01*
X015060Y013435D01*
X016290Y013603D02*
X016610Y013603D01*
X016610Y013823D01*
X016610Y014503D02*
X016610Y014723D01*
X016290Y014723D01*
D12*
X013963Y006575D02*
X011263Y006575D01*
X011263Y006275D02*
X013963Y006275D01*
X014001Y006274D01*
X014038Y006269D01*
X014075Y006262D01*
X014111Y006253D01*
X014147Y006240D01*
X014181Y006225D01*
X013963Y006575D02*
X014019Y006573D01*
X014074Y006567D01*
X014129Y006558D01*
X014183Y006544D01*
X014236Y006527D01*
X014287Y006506D01*
X014337Y006482D01*
X014385Y006454D01*
X014432Y006423D01*
X014475Y006389D01*
X014517Y006352D01*
X014556Y006312D01*
X014592Y006270D01*
X014624Y006225D01*
X014181Y005325D02*
X014147Y005310D01*
X014111Y005297D01*
X014075Y005288D01*
X014038Y005281D01*
X014001Y005276D01*
X013963Y005275D01*
X011263Y005275D01*
X011263Y004975D02*
X013963Y004975D01*
X013962Y004975D02*
X014018Y004977D01*
X014073Y004983D01*
X014128Y004992D01*
X014182Y005006D01*
X014235Y005023D01*
X014286Y005044D01*
X014336Y005068D01*
X014384Y005096D01*
X014431Y005127D01*
X014475Y005161D01*
X014516Y005198D01*
X014555Y005238D01*
X014591Y005280D01*
X014623Y005325D01*
X013063Y005775D02*
X012863Y005775D01*
X012363Y005775D02*
X012163Y005775D01*
X011263Y006575D02*
X011207Y006573D01*
X011152Y006567D01*
X011097Y006558D01*
X011043Y006544D01*
X010990Y006527D01*
X010939Y006506D01*
X010889Y006482D01*
X010841Y006454D01*
X010794Y006423D01*
X010750Y006389D01*
X010709Y006352D01*
X010670Y006312D01*
X010634Y006270D01*
X010602Y006225D01*
X010601Y005325D02*
X010633Y005280D01*
X010669Y005238D01*
X010708Y005198D01*
X010750Y005161D01*
X010793Y005127D01*
X010840Y005096D01*
X010888Y005068D01*
X010938Y005044D01*
X010989Y005023D01*
X011042Y005006D01*
X011096Y004992D01*
X011151Y004983D01*
X011206Y004977D01*
X011262Y004975D01*
X011262Y005275D02*
X011224Y005276D01*
X011187Y005281D01*
X011150Y005288D01*
X011114Y005297D01*
X011078Y005310D01*
X011044Y005325D01*
X011044Y006225D02*
X011078Y006240D01*
X011114Y006253D01*
X011150Y006262D01*
X011187Y006269D01*
X011224Y006274D01*
X011262Y006275D01*
D13*
X014650Y004075D02*
X014650Y002075D01*
X015400Y002075D01*
X015400Y004075D01*
X017150Y004075D01*
X017150Y002075D01*
X015400Y002075D01*
X015400Y004075D02*
X014650Y004075D01*
X014363Y016738D02*
X014363Y020738D01*
X016113Y020738D01*
X016113Y016738D01*
X014363Y016738D01*
X016113Y016738D02*
X016863Y016738D01*
X016863Y020738D01*
X016113Y020738D01*
D14*
X015066Y010513D02*
X014909Y010513D01*
X014909Y010237D02*
X015066Y010237D01*
X015066Y008963D02*
X014909Y008963D01*
X014909Y008687D02*
X015066Y008687D01*
X005770Y011895D02*
X005770Y013855D01*
D15*
X014938Y010488D03*
X014938Y008938D03*
D16*
X013518Y021378D02*
X013518Y024724D01*
X008400Y024724D01*
X008400Y021378D01*
D17*
X005970Y013634D03*
D18*
X010774Y010576D02*
X010774Y008149D01*
X010899Y008024D01*
X013326Y008024D01*
X013451Y008149D01*
X013451Y010576D01*
X013326Y010701D01*
X010899Y010701D01*
X010774Y010576D01*
M02*
