G75*
G70*
%OFA0B0*%
%FSLAX24Y24*%
%IPPOS*%
%LPD*%
%AMOC8*
5,1,8,0,0,1.08239X$1,22.5*
%
%ADD10C,0.0000*%
%ADD11C,0.0634*%
%ADD12R,0.0560X0.0560*%
%ADD13C,0.0560*%
%ADD14C,0.0640*%
%ADD15OC8,0.1045*%
%ADD16OC8,0.1040*%
D10*
X001569Y001508D02*
X001569Y021380D01*
X017226Y021380D01*
X017226Y001508D01*
X001569Y001508D01*
D11*
X015316Y017238D02*
X015909Y017238D01*
X015909Y018238D02*
X015316Y018238D01*
X015316Y019238D02*
X015909Y019238D01*
X015909Y020238D02*
X015316Y020238D01*
X015603Y003575D02*
X016197Y003575D01*
X016197Y002575D02*
X015603Y002575D01*
D12*
X007800Y004175D03*
X007800Y007550D03*
X007800Y010925D03*
D13*
X007800Y009925D03*
X007800Y008925D03*
X007800Y006550D03*
X007800Y005550D03*
X007800Y003175D03*
X007800Y002175D03*
X004800Y002175D03*
X004800Y003175D03*
X004800Y004175D03*
X004800Y005550D03*
X004800Y006550D03*
X004800Y007550D03*
X004800Y008925D03*
X004800Y009925D03*
X004800Y010925D03*
D14*
X002600Y011550D02*
X002000Y011550D01*
X002000Y012550D02*
X002600Y012550D01*
X002600Y013550D02*
X002000Y013550D01*
X002000Y009050D02*
X002600Y009050D01*
X002600Y008050D02*
X002000Y008050D01*
X002000Y007050D02*
X002600Y007050D01*
X002600Y004550D02*
X002000Y004550D01*
X002000Y003550D02*
X002600Y003550D01*
X002600Y002550D02*
X002000Y002550D01*
D15*
X003038Y002163D03*
X002350Y006225D03*
X002350Y010725D03*
X002225Y015600D03*
D16*
X003300Y018175D03*
X006300Y018175D03*
M02*
