G75*
G70*
%OFA0B0*%
%FSLAX24Y24*%
%IPPOS*%
%LPD*%
%AMOC8*
5,1,8,0,0,1.08239X$1,22.5*
%
%ADD10C,0.0000*%
%ADD11R,0.0434X0.0473*%
%ADD12R,0.0631X0.0552*%
%ADD13R,0.0473X0.0434*%
%ADD14R,0.2040X0.0740*%
%ADD15C,0.0634*%
%ADD16R,0.0434X0.0434*%
%ADD17R,0.0355X0.0355*%
%ADD18R,0.0827X0.0434*%
%ADD19R,0.0434X0.0749*%
%ADD20R,0.0591X0.0434*%
%ADD21R,0.0670X0.0750*%
%ADD22R,0.0560X0.0560*%
%ADD23C,0.0560*%
%ADD24C,0.0640*%
%ADD25R,0.0640X0.0280*%
%ADD26OC8,0.1045*%
%ADD27R,0.0830X0.0630*%
%ADD28R,0.0830X0.1540*%
%ADD29OC8,0.1040*%
%ADD30R,0.0552X0.0631*%
%ADD31R,0.0197X0.0512*%
%ADD32R,0.0512X0.0197*%
D10*
X001569Y001508D02*
X001569Y021380D01*
X017226Y021380D01*
X017226Y001508D01*
X001569Y001508D01*
D11*
X008465Y011175D03*
X008465Y011800D03*
X008465Y012425D03*
X009135Y012425D03*
X009135Y011800D03*
X009135Y011175D03*
X009297Y009925D03*
X008628Y009925D03*
X009115Y008925D03*
X009115Y008300D03*
X009785Y008300D03*
X009785Y008925D03*
X010290Y007000D03*
X010960Y007000D03*
X010072Y005075D03*
X010390Y004463D03*
X011060Y004463D03*
X009403Y005075D03*
X009447Y002813D03*
X008778Y002813D03*
X012690Y007013D03*
X013360Y007013D03*
X014215Y007075D03*
X014885Y007075D03*
X014653Y008275D03*
X015322Y008275D03*
X015285Y009313D03*
X015285Y009863D03*
X014615Y009863D03*
X014615Y009313D03*
X014385Y011225D03*
X013715Y011225D03*
X012860Y012463D03*
X012190Y012463D03*
X011172Y012425D03*
X011185Y011800D03*
X010515Y011800D03*
X010503Y012425D03*
X007760Y011613D03*
X007090Y011613D03*
X006760Y017238D03*
X006090Y017238D03*
X005135Y018175D03*
X004465Y018175D03*
X015890Y015150D03*
X016560Y015150D03*
D12*
X014725Y003310D03*
X014725Y002641D03*
X007550Y014966D03*
X007550Y015635D03*
D13*
X007300Y017903D03*
X007300Y018572D03*
X009800Y012385D03*
X009800Y011716D03*
X008463Y008797D03*
X008463Y008128D03*
X004067Y006185D03*
X004067Y005516D03*
X003800Y003935D03*
X003800Y003266D03*
X003950Y009766D03*
X003950Y010435D03*
X013975Y003360D03*
X013975Y002691D03*
X015588Y006341D03*
X015588Y007010D03*
X014688Y013991D03*
X014688Y014660D03*
X014675Y015703D03*
X014675Y016372D03*
X016550Y016347D03*
X016550Y015678D03*
D14*
X014513Y005775D03*
X010713Y005775D03*
D15*
X015603Y003575D02*
X016197Y003575D01*
X016197Y002575D02*
X015603Y002575D01*
X015316Y017238D02*
X015909Y017238D01*
X015909Y018238D02*
X015316Y018238D01*
X015316Y019238D02*
X015909Y019238D01*
X015909Y020238D02*
X015316Y020238D01*
D16*
X013213Y012450D03*
X011538Y012425D03*
D17*
X014692Y010375D03*
X015283Y010375D03*
X015283Y008825D03*
X014692Y008825D03*
D18*
X013518Y013898D03*
X013518Y014488D03*
X013518Y015079D03*
X013518Y015669D03*
X013518Y016260D03*
X013518Y016850D03*
X013518Y017441D03*
X013518Y018031D03*
X013518Y018622D03*
X013518Y019213D03*
X013518Y019803D03*
X013518Y020394D03*
X013518Y020984D03*
X008400Y020984D03*
X008400Y020394D03*
X008400Y019803D03*
X008400Y019213D03*
X008400Y018622D03*
X008400Y018031D03*
X008400Y017441D03*
X008400Y016850D03*
X008400Y016260D03*
X008400Y015669D03*
X008400Y015079D03*
X008400Y014488D03*
X008400Y013898D03*
D19*
X008892Y013209D03*
X009483Y013209D03*
X010073Y013209D03*
X010664Y013209D03*
X011254Y013209D03*
X011845Y013209D03*
X012435Y013209D03*
X013026Y013209D03*
D20*
X014567Y012875D03*
X015433Y012501D03*
X015433Y013249D03*
X015917Y013789D03*
X015917Y014537D03*
X016783Y014163D03*
X007358Y019176D03*
X007358Y019924D03*
X006492Y019550D03*
D21*
X004210Y015300D03*
X004015Y014275D03*
X005135Y014275D03*
X003090Y015300D03*
D22*
X007800Y010925D03*
X007800Y007550D03*
X007800Y004175D03*
D23*
X007800Y003175D03*
X007800Y002175D03*
X007800Y005550D03*
X007800Y006550D03*
X007800Y008925D03*
X007800Y009925D03*
X004800Y009925D03*
X004800Y008925D03*
X004800Y007550D03*
X004800Y006550D03*
X004800Y005550D03*
X004800Y004175D03*
X004800Y003175D03*
X004800Y002175D03*
X004800Y010925D03*
D24*
X002600Y011550D02*
X002000Y011550D01*
X002000Y012550D02*
X002600Y012550D01*
X002600Y013550D02*
X002000Y013550D01*
X002000Y009050D02*
X002600Y009050D01*
X002600Y008050D02*
X002000Y008050D01*
X002000Y007050D02*
X002600Y007050D01*
X002600Y004550D02*
X002000Y004550D01*
X002000Y003550D02*
X002600Y003550D01*
X002600Y002550D02*
X002000Y002550D01*
D25*
X005330Y012125D03*
X005330Y012625D03*
X005330Y013125D03*
X005330Y013625D03*
X007470Y013625D03*
X007470Y013125D03*
X007470Y012625D03*
X007470Y012125D03*
D26*
X002350Y010725D03*
X002350Y006225D03*
X003038Y002163D03*
X002225Y015600D03*
D27*
X013165Y003710D03*
X013165Y002810D03*
X013165Y001910D03*
D28*
X010685Y002800D03*
D29*
X006300Y018175D03*
X003300Y018175D03*
D30*
X008778Y001988D03*
X009447Y001988D03*
D31*
X011010Y007699D03*
X011325Y007699D03*
X011640Y007699D03*
X011955Y007699D03*
X012270Y007699D03*
X012585Y007699D03*
X012900Y007699D03*
X013215Y007699D03*
X013215Y011026D03*
X012900Y011026D03*
X012585Y011026D03*
X012270Y011026D03*
X011955Y011026D03*
X011640Y011026D03*
X011325Y011026D03*
X011010Y011026D03*
D32*
X010449Y010465D03*
X010449Y010150D03*
X010449Y009835D03*
X010449Y009520D03*
X010449Y009205D03*
X010449Y008890D03*
X010449Y008575D03*
X010449Y008260D03*
X013776Y008260D03*
X013776Y008575D03*
X013776Y008890D03*
X013776Y009205D03*
X013776Y009520D03*
X013776Y009835D03*
X013776Y010150D03*
X013776Y010465D03*
M02*
