%
M48
M72
T01C0.0157
T02C0.0320
T03C0.0394
T04C0.0400
T05C0.0670
%
T01
X8425Y1950
X8550Y2825
X9863Y4363
X9363Y5425
X10300Y6675
X9750Y7263
X9500Y7013
X8975Y8000
X9000Y9200
X8500Y10825
X8000Y11513
X8250Y13575
X8925Y14525
X9188Y14263
X10025Y12563
X11463Y11938
X11925Y11613
X12300Y11925
X13113Y11563
X14188Y10475
X14625Y11225
X15613Y10800
X16550Y10925
X15500Y12200
X13738Y13238
X13625Y13638
X13313Y13138
X12738Y13800
X12300Y14175
X11738Y13800
X12425Y10175
X13925Y7738
X13650Y7038
X14613Y7738
X14925Y6738
X15550Y7300
X14425Y8800
X10425Y8050
X14050Y2450
X13675Y1950
X12675Y1950
X14800Y2325
X16250Y14638
X8988Y17925
X7738Y17925
X7413Y17250
X7538Y16000
X7475Y20250
T02
X4800Y10925
X4800Y9925
X4800Y8925
X4800Y7550
X4800Y6550
X4800Y5550
X4800Y4175
X4800Y3175
X4800Y2175
X7800Y2175
X7800Y3175
X7800Y4175
X7800Y5550
X7800Y6550
X7800Y7550
X7800Y8925
X7800Y9925
X7800Y10925
T03
X15613Y17238
X15613Y18238
X15613Y19238
X15613Y20238
X15900Y3575
X15900Y2575
T04
X2300Y2550
X2300Y3550
X2300Y4550
X2300Y7050
X2300Y8050
X2300Y9050
X2300Y11550
X2300Y12550
X2300Y13550
X3300Y18175
X6300Y18175
T05
X2225Y15600
X2350Y10725
X2350Y6225
X3038Y2163
M30
